<svg width="16" height="16" viewBox="0 0 16 16" fill="none" xmlns="http://www.w3.org/2000/svg">
<path opacity="0.9" d="M5.00001 1.5C5.00001 0.809644 5.55966 0.25 6.25001 0.25H9.75001C10.4404 0.25 11 0.809644 11 1.5C11 2.19036 10.4404 2.75 9.75001 2.75H6.25001C5.55966 2.75 5.00001 2.19036 5.00001 1.5Z" fill="#666F80"/>
<path fill-rule="evenodd" clip-rule="evenodd" d="M1.5 4.5C1.5 3.01338 2.58133 1.77931 4.00037 1.54142C4.02246 2.76495 5.02119 3.75 6.25 3.75H9.75C10.9788 3.75 11.9775 2.76495 11.9996 1.54142C13.4187 1.77931 14.5 3.01337 14.5 4.5V12.5C14.5 14.1569 13.1569 15.5 11.5 15.5H4.5C2.84315 15.5 1.5 14.1569 1.5 12.5V4.5ZM3.74998 6.75002C3.74998 6.3358 4.08576 6.00002 4.49998 6.00002H11.5C11.9142 6.00002 12.25 6.3358 12.25 6.75002C12.25 7.16423 11.9142 7.50002 11.5 7.50002H4.49998C4.08576 7.50002 3.74998 7.16423 3.74998 6.75002ZM3.74998 9.75002C3.74998 9.3358 4.08576 9.00002 4.49998 9.00002H8.49998C8.91419 9.00002 9.24998 9.3358 9.24998 9.75002C9.24998 10.1642 8.91419 10.5 8.49998 10.5H4.49998C4.08576 10.5 3.74998 10.1642 3.74998 9.75002Z" fill="#BAC1CC"/>
</svg>
