<svg width="16" height="16" viewBox="0 0 16 16" fill="none" xmlns="http://www.w3.org/2000/svg">
<path fill-rule="evenodd" clip-rule="evenodd" d="M15 8C15 4.13401 11.866 1 8 1C4.13401 1 1 4.13401 1 8C1 11.866 4.13401 15 8 15C11.866 15 15 11.866 15 8ZM8.03178 4.11118C6.76175 4.11118 5.72533 5.11153 5.66673 6.36731C5.66574 6.39634 5.67665 6.42447 5.69684 6.44539C5.71031 6.45927 5.72714 6.46911 5.74549 6.47413L5.77393 6.47794H7.1508C7.20246 6.47794 7.2452 6.43764 7.24817 6.38597C7.2938 5.99359 7.62722 5.68902 8.03178 5.68902C8.46753 5.68902 8.8207 6.04227 8.8207 6.47794C8.8207 6.63165 8.75309 6.77554 8.54474 7.02719L8.45987 7.12684L8.10084 7.53356C7.54532 8.33781 7.25969 9.00104 7.24394 9.52326C7.24304 9.55229 7.25394 9.58033 7.27414 9.60116C7.28767 9.61504 7.30452 9.62488 7.32282 9.62987L7.35114 9.63362H8.71683C8.77471 9.63371 8.82214 9.58763 8.82385 9.52966C8.84495 9.19542 8.97472 8.94312 9.29604 8.56355L9.62188 8.19472L9.7692 8.02224C10.1917 7.50885 10.3985 7.07148 10.3985 6.47794C10.3985 5.17086 9.33895 4.11118 8.03178 4.11118ZM8.07876 10.3334C7.60571 10.3334 7.22222 10.7169 7.22222 11.1899C7.22222 11.663 7.60571 12.0465 8.07876 12.0465C8.55182 12.0465 8.93531 11.663 8.93531 11.1899C8.93531 10.7169 8.55182 10.3334 8.07876 10.3334Z" fill="#BAC1CC"/>
</svg>
