<svg width="16" height="16" viewBox="0 0 16 16" fill="none" xmlns="http://www.w3.org/2000/svg">
<path opacity="0.9" fill-rule="evenodd" clip-rule="evenodd" d="M7.99969 1C6.15801 1 4.52776 1.3749 3.38567 1.94595C2.19865 2.53946 1.75 3.22062 1.75 3.75C1.75 4.27938 2.19865 4.96054 3.38567 5.55405C4.52776 6.1251 6.15801 6.5 7.99969 6.5C9.84137 6.5 11.4716 6.1251 12.6137 5.55405C13.8007 4.96054 14.2494 4.27938 14.2494 3.75C14.2494 3.22062 13.8007 2.53946 12.6137 1.94595C11.4716 1.3749 9.84137 1 7.99969 1Z" fill="#666F80"/>
<path fill-rule="evenodd" clip-rule="evenodd" d="M14.25 6.14749C14.0067 6.438 13.6908 6.69271 13.2848 6.89569C11.8936 7.59132 10.0241 7.99995 8 7.99999C5.97594 7.99995 4.10642 7.59132 2.71516 6.89569C2.3092 6.69271 1.99328 6.438 1.75 6.14749V8.24999H1.75031C1.75031 8.77937 2.19896 9.46053 3.38598 10.0541C4.52807 10.6251 6.15832 11 8 11C9.84168 11 11.4719 10.6251 12.614 10.0541C13.801 9.46053 14.2497 8.77937 14.2497 8.24999H14.25V6.14749ZM1.75 12.3228V10.6475C1.99328 10.938 2.3092 11.1927 2.71516 11.3957C4.10642 12.0913 5.97594 12.5 8 12.5C10.0241 12.5 11.8936 12.0913 13.2848 11.3957C13.6908 11.1927 14.0067 10.938 14.25 10.6475V12.3228L14.2398 12.3952C14.1655 12.9214 13.639 13.577 12.4639 14.1268C11.3298 14.6574 9.76048 15 8 15C6.23952 15 4.67019 14.6574 3.53606 14.1268C2.36102 13.577 1.8345 12.9214 1.76022 12.3952L1.75 12.3228Z" fill="#BAC1CC"/>
</svg>
