<svg width="16" height="16" viewBox="0 0 16 16" fill="none" xmlns="http://www.w3.org/2000/svg">
<path fill-rule="evenodd" clip-rule="evenodd" d="M3.4 4.8C4.1732 4.8 4.8 4.1732 4.8 3.4C4.8 2.6268 4.1732 2 3.4 2C2.6268 2 2 2.6268 2 3.4C2 4.1732 2.6268 4.8 3.4 4.8ZM8.0001 4.8C8.77327 4.8 9.4001 4.1732 9.4001 3.4C9.4001 2.6268 8.77327 2 8.0001 2C7.22692 2 6.6001 2.6268 6.6001 3.4C6.6001 4.1732 7.22692 4.8 8.0001 4.8ZM14.0002 3.4C14.0002 4.1732 13.3734 4.8 12.6002 4.8C11.827 4.8 11.2002 4.1732 11.2002 3.4C11.2002 2.6268 11.827 2 12.6002 2C13.3734 2 14.0002 2.6268 14.0002 3.4ZM3.4 9.39998C4.1732 9.39998 4.8 8.77318 4.8 7.99998C4.8 7.22677 4.1732 6.59998 3.4 6.59998C2.6268 6.59998 2 7.22677 2 7.99998C2 8.77318 2.6268 9.39998 3.4 9.39998ZM9.4001 7.99998C9.4001 8.77318 8.77327 9.39998 8.0001 9.39998C7.22692 9.39998 6.6001 8.77318 6.6001 7.99998C6.6001 7.22677 7.22692 6.59998 8.0001 6.59998C8.77327 6.59998 9.4001 7.22677 9.4001 7.99998ZM12.6002 9.39998C13.3734 9.39998 14.0002 8.77318 14.0002 7.99998C14.0002 7.22677 13.3734 6.59998 12.6002 6.59998C11.827 6.59998 11.2002 7.22677 11.2002 7.99998C11.2002 8.77318 11.827 9.39998 12.6002 9.39998ZM4.8 12.6C4.8 13.3732 4.1732 14 3.4 14C2.6268 14 2 13.3732 2 12.6C2 11.8268 2.6268 11.2 3.4 11.2C4.1732 11.2 4.8 11.8268 4.8 12.6ZM8.0001 14C8.7733 14 9.4001 13.3732 9.4001 12.6C9.4001 11.8268 8.7733 11.2 8.0001 11.2C7.2269 11.2 6.6001 11.8268 6.6001 12.6C6.6001 13.3732 7.2269 14 8.0001 14ZM13.8 12.6C13.8 13.3732 13.1732 14 12.4 14C11.6268 14 11 13.3732 11 12.6C11 11.8268 11.6268 11.2 12.4 11.2C13.1732 11.2 13.8 11.8268 13.8 12.6Z" fill="#666F80"/>
</svg>
