<svg width="16" height="16" viewBox="0 0 16 16" fill="none" xmlns="http://www.w3.org/2000/svg">
<path opacity="0.9" fill-rule="evenodd" clip-rule="evenodd" d="M6.18261 13.3797C6.01532 13.3797 5.87744 13.5161 5.90105 13.6817C6.04764 14.7097 6.93152 15.5 8 15.5C9.06848 15.5 9.95236 14.7097 10.0989 13.6817C10.1226 13.5161 9.98468 13.3797 9.81739 13.3797H6.18261Z" fill="#666F80"/>
<path fill-rule="evenodd" clip-rule="evenodd" d="M8 0.5C7.1875 0.5 6.52885 1.15866 6.52885 1.97116C4.64934 2.58892 3.2923 4.35806 3.2923 6.44429V7.34509C3.2923 8.25626 2.84961 9.11062 2.10521 9.63608L2.0543 9.67202C0.88871 10.4948 1.47084 12.3289 2.89756 12.3289H13.1024C14.5292 12.3289 15.1113 10.4948 13.9457 9.67202L13.8948 9.63608C13.1504 9.11062 12.7077 8.25626 12.7077 7.34509V6.44429C12.7077 4.35806 11.3507 2.58878 9.47116 1.97102C9.47116 1.15852 8.8125 0.5 8 0.5Z" fill="#BAC1CC"/>
</svg>
