<?xml version="1.0" encoding="UTF-8"?>
<svg width="16px" height="16px" viewBox="0 0 16 16" version="1.1" xmlns="http://www.w3.org/2000/svg" xmlns:xlink="http://www.w3.org/1999/xlink">
    <title>小队管理</title>
    <defs>
        <filter color-interpolation-filters="auto" id="filter-1">
            <feColorMatrix in="SourceGraphic" type="matrix" values="0 0 0 0 0.105882 0 0 0 0 0.176471 0 0 0 0 0.254902 0 0 0 1.000000 0"></feColorMatrix>
        </filter>
    </defs>
    <g id="小队管理" stroke="none" stroke-width="1" fill="none" fill-rule="evenodd">
        <g filter="url(#filter-1)" id="编组">
            <g transform="translate(0.000000, 1.500000)">
                <path d="M15.7660249,10.463064 L15.0715462,10.5519857 C15.0103576,10.7874593 14.915731,11.012946 14.7905535,11.2215663 L15.2191562,11.768435 C15.3009343,11.8722444 15.2913498,12.0209951 15.1969258,12.1134513 L14.7754368,12.529605 C14.6807946,12.6231305 14.5317047,12.6326146 14.4259744,12.5518354 L13.8711028,12.1294572 C13.6591439,12.2534356 13.4307278,12.3468377 13.19263,12.406893 L13.1037083,13.0924795 C13.0845644,13.2247125 12.9705475,13.322387 12.8369431,13.3210228 L12.2402783,13.3210228 C12.1066739,13.322387 11.992657,13.2247125 11.9735131,13.0924795 L11.8845914,12.406893 C11.6465159,12.3467698 11.4181091,12.2533715 11.2061186,12.1294572 L10.6521362,12.5518354 C10.5464059,12.6326146 10.397316,12.6231305 10.3026738,12.529605 L9.88118478,12.1134513 C9.78715545,12.0208144 9.77759092,11.8723729 9.85895435,11.768435 L10.2866679,11.2215663 C10.1614245,11.0129794 10.0667939,10.7874829 10.0056752,10.5519857 L9.3111965,10.463064 C9.18056978,10.4455113 9.08234067,10.3351925 9.08,10.2034125 L9.08,9.61475069 C9.08234067,9.48297074 9.18056978,9.37265188 9.3111965,9.35509924 L10.0056752,9.2661775 C10.0668056,9.03068425 10.1614355,8.80518942 10.2866679,8.59659687 L9.85895435,8.04972824 C9.77759092,7.94579028 9.78715545,7.79734879 9.88118478,7.70471192 L10.3026738,7.28855823 C10.397316,7.19503269 10.5464059,7.1855486 10.6521362,7.2663278 L11.2061186,7.68870601 C11.4181249,7.56482362 11.646527,7.47142721 11.8845914,7.41127021 L11.9735131,6.72568367 C11.992657,6.59345072 12.1066739,6.49577625 12.2402783,6.49714042 L12.8369431,6.49714042 C12.9705475,6.49577625 13.0845644,6.59345072 13.1037083,6.72568367 L13.19263,7.41127021 C13.4307167,7.4713595 13.6591281,7.56475971 13.8711028,7.68870601 L14.4259744,7.2663278 C14.5317047,7.1855486 14.6807946,7.19503269 14.7754368,7.28855823 L15.1969258,7.70471192 C15.2913498,7.79716807 15.3009343,7.94591885 15.2191562,8.04972824 L14.7905535,8.59659687 C14.91572,8.80522275 15.0103459,9.03070785 15.0715462,9.2661775 L15.7660249,9.35509924 C15.8966516,9.37265188 15.9948807,9.48297074 15.9972214,9.61475069 L15.9972214,10.2034125 C15.9948807,10.3351925 15.8966516,10.4455113 15.7660249,10.463064 L15.7660249,10.463064 Z M12.550413,8.67395878 C11.8704268,8.68277144 11.3254857,9.239596 11.3313419,9.9196141 C11.337198,10.5996322 11.8916481,11.1469891 12.5716852,11.144101 C13.2517223,11.1411899 13.8014846,10.5891249 13.8015417,9.90908161 C13.7956719,9.22327686 13.2362342,8.67139373 12.550413,8.674848 L12.550413,8.67395878 Z M14.2274768,6.21616216 L14.2274768,3.54851026 L0.889217309,3.54851026 L0.889217309,10.3622487 C0.889217309,10.5279341 1.02353188,10.6622487 1.18921731,10.6622487 L8.00295571,10.6622487 L8.00295571,10.6622487 C7.9766127,10.9580691 7.9766127,11.2556455 8.00295571,11.551466 L0.500000007,11.551466 C0.223857632,11.551466 7.41169973e-09,11.3276083 7.4116997e-09,11.051466 L7.4116997e-09,0.5 C-4.70311485e-05,0.223857625 0.223810594,5.07265313e-17 0.499952969,0 C0.499968649,-2.88041666e-21 0.499984329,7.376114e-10 0.500000005,4.70407728e-05 L14.6193618,0.00137541216 C14.8954858,0.00144843332 15.1193147,0.225298448 15.1193618,0.501422453 L15.1193618,6.21705138 L15.1193618,6.21705138 C14.8632672,6.0383187 14.5129156,6.33264964 14.2274768,6.21616216 Z M14.2274768,0.880858365 L0.889217309,0.880858365 L0.889217309,2.61838896 L14.2274768,2.61838896 L14.2274768,0.880858365 Z M6.38102336,8.26136195 C6.80694804,8.65497439 7.06862325,9.1948383 7.11373841,9.77303136 L1.77843461,9.76324997 C1.8069115,8.58482796 2.61389448,7.56838516 3.75516466,7.27344154 C3.2366789,7.02475077 2.90880632,6.49862965 2.9139651,5.92360968 C2.87812324,5.17591834 3.43021267,4.52940125 4.17429269,4.44771957 C4.91837272,4.3660379 5.59756772,4.87739026 5.72478099,5.61505126 C5.86950623,6.28827685 5.53530253,6.97321082 4.91559324,7.27344154 C5.50607911,7.41784573 6.02569139,7.7681426 6.38102336,8.26136195 Z M6.24141624,7.00845477 C6.22355473,6.97012216 6.22355473,6.92585384 6.24141624,6.88752123 L6.25208684,6.87507218 C6.25927481,6.86335078 6.2682792,6.85284567 6.27876336,6.84394958 C6.59562748,6.46620865 6.76773126,5.98803751 6.764276,5.49500693 C6.76532731,5.17157231 6.69232541,4.85218903 6.55086385,4.56132877 C6.71529836,4.47977995 6.89640292,4.43747149 7.07994815,4.43772188 C7.8181124,4.47090032 8.39054615,5.0946146 8.36042106,5.8329095 C8.36654578,6.30419598 8.13959423,6.74811587 7.75397487,7.01912539 C8.10444615,7.13775901 8.42067077,7.34013056 8.67520399,7.60867645 C8.77390711,7.68781679 8.93466187,7.9497756 8.93466187,8.0013502 C8.40933228,8.5291212 8.274292,8.93665293 8.00295571,9.76929454 C7.78166199,9.29151133 7.63085938,8.59723643 7.30520631,8.06613902 C6.97955323,7.53504161 6.71766076,7.30798728 6.32944876,7.07870295 C6.29126055,7.0700691 6.25803106,7.04448239 6.24141624,7.00845477 Z" id="形状" fill="#000000" fill-rule="nonzero"></path>
            </g>
        </g>
    </g>
</svg>