<svg width="16" height="16" viewBox="0 0 16 16" fill="none" xmlns="http://www.w3.org/2000/svg">
<path opacity="0.9" fill-rule="evenodd" clip-rule="evenodd" d="M6.23751 1.89251C6.0821 1.79926 5.90426 1.75 5.72302 1.75H2.25C1.69772 1.75 1.25 2.19772 1.25 2.75V4.75C1.25 5.02614 1.47386 5.25 1.75 5.25H14.25C14.5261 5.25 14.75 5.02614 14.75 4.75V4.25C14.75 3.69772 14.3023 3.25 13.75 3.25H8.77698C8.59574 3.25 8.4179 3.20074 8.26249 3.10749L6.23751 1.89251Z" fill="#666F80"/>
<path fill-rule="evenodd" clip-rule="evenodd" d="M2.03174 6.25C1.46721 6.25 1.01459 6.71699 1.03223 7.28124L1.21973 13.2812C1.2366 13.8211 1.67911 14.25 2.21924 14.25H13.7808C14.3209 14.25 14.7634 13.8211 14.7803 13.2812L14.9678 7.28123C14.9854 6.71699 14.5328 6.25 13.9683 6.25H2.03174ZM3.75 8.25C3.33579 8.25 3 8.58579 3 9C3 9.41421 3.33579 9.75 3.75 9.75H7.25C7.66421 9.75 8 9.41421 8 9C8 8.58579 7.66421 8.25 7.25 8.25H3.75Z" fill="#BAC1CC"/>
</svg>
