<svg width="16" height="16" viewBox="0 0 16 16" fill="none" xmlns="http://www.w3.org/2000/svg">
<path opacity="0.9" d="M10 8C10 9.10457 9.10457 10 8 10C6.89543 10 6 9.10457 6 8C6 6.89543 6.89543 6 8 6C9.10457 6 10 6.89543 10 8Z" fill="#666F80"/>
<path fill-rule="evenodd" clip-rule="evenodd" d="M9.50015 1.266C8.57195 0.730105 7.42836 0.730104 6.50015 1.266L2.91836 3.33395C1.99016 3.86985 1.41836 4.86023 1.41836 5.93203V10.0679C1.41836 11.1397 1.99016 12.1301 2.91836 12.666L6.50015 14.734C7.42836 15.2699 8.57195 15.2699 9.50015 14.734L13.0819 12.666C14.0101 12.1301 14.5819 11.1397 14.5819 10.0679V5.93203C14.5819 4.86023 14.0101 3.86985 13.0819 3.33395L9.50015 1.266ZM7.9999 11.5C9.9329 11.5 11.4999 9.933 11.4999 8C11.4999 6.06701 9.9329 4.5 7.9999 4.5C6.06691 4.5 4.4999 6.06701 4.4999 8C4.4999 9.933 6.06691 11.5 7.9999 11.5Z" fill="#BAC1CC"/>
</svg>
