<?xml version="1.0" standalone="no"?><!DOCTYPE svg PUBLIC "-//W3C//DTD SVG 1.1//EN" "http://www.w3.org/Graphics/SVG/1.1/DTD/svg11.dtd"><svg t="1727234611240" class="icon" viewBox="0 0 1024 1024" version="1.1" xmlns="http://www.w3.org/2000/svg" p-id="7717" xmlns:xlink="http://www.w3.org/1999/xlink" width="200" height="200"><path d="M884.6060858 778.91327681L884.6060858 267.53998665c0-76.99995519-63.44197188-140.44192586-140.44192585-140.44192585L276.27775469 127.09805958c-76.99995519 0-140.44192586 63.44197188-140.44192586 140.44192586l0 511.37329015c0 70.09366714 53.46567054 130.46686727 120.23349005 140.44316862l-123.55809613 153.74655913 133.79023059 0 133.79023062-150.42071149 233.81652639 0 123.55809614 150.42071149 127.1397781 0-113.5817948-153.74655913C834.46626289 906.055538 884.6060858 849.26526137 884.6060858 778.91327681L884.6060858 778.91327681zM282.9306927 842.61356612c-33.51182631 0-63.44321343-26.60553948-63.44321343-63.44445497 0-33.51058478 26.86137381-63.44197188 63.44321343-63.44197188 33.51058478 0 63.44073034 26.86013106 63.44073034 63.44197188C346.37142183 812.42634467 319.76712511 842.61356612 282.9306927 842.61356612L282.9306927 842.61356612zM730.86201098 842.61356612c-33.51182631 0-63.69904777-26.86385691-63.69904777-63.70029053 0-33.25475043 26.86137381-63.44073034 63.69904777-63.44073033 33.51058478 0 63.44197188 26.86013106 63.44197188 63.44073033C794.30398286 812.42634467 767.44260903 842.61356612 730.86201098 842.61356612L730.86201098 842.61356612zM824.48996155 504.93695348c0 40.16228003-30.18597869 70.09242559-70.0924256 70.09242559L269.6273022 575.02937785c-40.16228003 0-70.09242559-30.18597869-70.0924256-70.09242559L199.5348766 351.19163589c0-40.16228003 30.18597869-70.09366714 70.0924256-70.09366714l481.18731025 0c40.16352157 0 70.09366714 30.18722145 70.09366713 70.09366714l0 153.74407483L824.48996155 504.93571072z" p-id="7718" fill="#bfbfbf"></path><path d="M426.69722465 93.84082606l170.37331296 0c26.86137381 0 50.13982291-23.2784491 50.13982291-50.13982292 0-26.86013106-23.27969185-50.13982291-50.13982291-50.13982291L426.69722465-6.43882098c-26.86013106 0-50.13982291 23.27969185-50.13982291 50.13982291C376.55864327 70.56237575 399.83709237 93.84082606 426.69722465 93.84082606L426.69722465 93.84082606z" p-id="7719" fill="#bfbfbf"></path></svg>