<?xml version="1.0" encoding="UTF-8"?>
<svg width="16px" height="16px" viewBox="0 0 16 16" version="1.1" xmlns="http://www.w3.org/2000/svg" xmlns:xlink="http://www.w3.org/1999/xlink">
    <title>menu-icons/filter</title>
    <g id="Symbols" stroke="none" stroke-width="1" fill="none" fill-rule="evenodd">
        <g id="Icons/Menu/Filter" fill="#455166">
            <path d="M9,15 L7,15 C6.448,15 6,14.552 6,14 L6,14 C6,13.448 6.448,13 7,13 L9,13 C9.552,13 10,13.448 10,14 L10,14 C10,14.552 9.552,15 9,15 Z" id="Path" opacity="0.300000012"></path>
            <path d="M11,11 L5,11 C4.448,11 4,10.552 4,10 L4,10 C4,9.448 4.448,9 5,9 L11,9 C11.552,9 12,9.448 12,10 L12,10 C12,10.552 11.552,11 11,11 Z" id="Path" opacity="0.5"></path>
            <path d="M13,7 L3,7 C2.448,7 2,6.552 2,6 L2,6 C2,5.448 2.448,5 3,5 L13,5 C13.552,5 14,5.448 14,6 L14,6 C14,6.552 13.552,7 13,7 Z" id="Path" opacity="0.75"></path>
            <path d="M15,3 L1,3 C0.448,3 0,2.552 0,2 L0,2 C0,1.448 0.448,1 1,1 L15,1 C15.552,1 16,1.448 16,2 L16,2 C16,2.552 15.552,3 15,3 Z" id="Path"></path>
        </g>
    </g>
</svg>