<svg width="16" height="16" viewBox="0 0 16 16" fill="none" xmlns="http://www.w3.org/2000/svg">
<path opacity="0.9" fill-rule="evenodd" clip-rule="evenodd" d="M10.7879 12.5039C10.6099 12.1923 10.2785 12 9.91968 12H6.08039C5.72153 12 5.39019 12.1923 5.21215 12.5039L4.64072 13.5039C4.25977 14.1705 4.74114 15 5.50896 15H10.4911C11.2589 15 11.7403 14.1705 11.3593 13.5039L10.7879 12.5039Z" fill="#666F80"/>
<path fill-rule="evenodd" clip-rule="evenodd" d="M4 1C2.34315 1 1 2.34315 1 4V8C1 9.65685 2.34315 11 4 11H12C13.6569 11 15 9.65685 15 8V4C15 2.34315 13.6569 1 12 1H4ZM3 4.5C3 4.15482 3.27982 3.875 3.625 3.875H12.375C12.7202 3.875 13 4.15482 13 4.5C13 4.84518 12.7202 5.125 12.375 5.125H3.625C3.27982 5.125 3 4.84518 3 4.5ZM3 7.5C3 7.15482 3.27982 6.875 3.625 6.875H9.375C9.72018 6.875 10 7.15482 10 7.5C10 7.84518 9.72018 8.125 9.375 8.125H3.625C3.27982 8.125 3 7.84518 3 7.5Z" fill="#C1C7D1"/>
</svg>
