<svg width="16" height="16" viewBox="0 0 16 16" fill="none" xmlns="http://www.w3.org/2000/svg">
<path fill-rule="evenodd" clip-rule="evenodd" d="M10.0817 4.22494C10.0817 6.012 8.63303 7.4607 6.84596 7.4607C5.0589 7.4607 3.6102 6.012 3.6102 4.22494C3.6102 2.43787 5.0589 0.989166 6.84596 0.989166C8.63303 0.989166 10.0817 2.43787 10.0817 4.22494ZM8.35452 8.69554C7.88845 8.59325 7.38554 8.53929 6.84581 8.53929C3.50575 8.53929 1.21054 10.668 1.05692 13.4014C1.00678 14.2936 1.63792 15.0108 2.53145 15.0108H8.4635C8.12499 14.5602 7.9244 14 7.9244 13.3929V10.1572C7.9244 9.61846 8.08237 9.11666 8.35452 8.69554Z" fill="#BAC1CC"/>
<path opacity="0.9" fill-rule="evenodd" clip-rule="evenodd" d="M9.03383 10.2985C9.03383 9.43097 9.73709 8.72771 10.6046 8.72771H13.7462C14.6137 8.72771 15.317 9.43097 15.317 10.2985V13.4401C15.317 14.3076 14.6137 15.0108 13.7462 15.0108H10.6046C9.73709 15.0108 9.03383 14.3076 9.03383 13.4401V10.2985ZM10.3428 10.8221C10.3428 10.5329 10.5772 10.2985 10.8664 10.2985H13.4844C13.7735 10.2985 14.008 10.5329 14.008 10.8221C14.008 11.1113 13.7735 11.3457 13.4844 11.3457H10.8664C10.5772 11.3457 10.3428 11.1113 10.3428 10.8221ZM10.8664 12.3929C10.5772 12.3929 10.3428 12.6273 10.3428 12.9165C10.3428 13.2056 10.5772 13.4401 10.8664 13.4401H13.4844C13.7735 13.4401 14.008 13.2056 14.008 12.9165C14.008 12.6273 13.7735 12.3929 13.4844 12.3929H10.8664Z" fill="#666F80"/>
</svg>
